# xmcd
#
# Track frame offsets: 
#        150
#        14611
#        32612
#        60994
#        89453
#        103924
#
# Disc length: 1761 seconds
#
# Revision: 0
# Processed by: cddbd v1.5.2PL0 Copyright (c) Steve Scherf et al.
# Submitted via: ExactAudioCopy v0.95b4
#
DISCID=4506df06
DTITLE=Mango Maniax - Jump all around
DYEAR=1900
DGENRE=
TTITLE0=Original Radio Edit
TTITLE1=DJ Jaques Remix Radio Edit
TTITLE2=Original Club Mix
TTITLE3=DJ Jaques Remix
TTITLE4=DJ TAK Hates Drums Radio Edit
TTITLE5=DJ TAK Hates Drums Mix
EXTD=
EXTT0=
EXTT1=
EXTT2=
EXTT3=
EXTT4=
EXTT5=
PLAYORDER=
